<svg id="Layer_1" data-name="Layer 1" xmlns="http://www.w3.org/2000/svg" viewBox="0 0 1024 383.7"><defs><style>.cls-1{fill:#fff;}.cls-2{fill:#f2b91b;}.cls-3{fill:#04bcca;}</style></defs><title>BuildLOGO_RGB</title><path class="cls-1" d="M960.9,146.3H888.1a124.2,124.2,0,0,0-26.4,2.3,88.2,88.2,0,0,0-44.2,24.2,91.8,91.8,0,0,0-25.1,46.1,86.7,86.7,0,0,0-1.6,23.1,90.1,90.1,0,0,0,84.8,84.9v40.5A130.7,130.7,0,0,1,750.3,242V231.8c2.6-68.1,57.2-123.3,125.3-125.9,8.8-.3,85.3-.3,85.3-.3Z"/><path class="cls-1" d="M978.4,241.6V16.3H1019V241.6c-2.6,68.2-57.5,123.1-125.8,125.8V326.7A90.4,90.4,0,0,0,978.4,241.6Z"/><rect class="cls-2" x="601.9" y="47.5" width="40.7" height="40.68"/><rect class="cls-1" x="601.9" y="105.6" width="40.7" height="261.85"/><path class="cls-1" d="M676.1,47.2h40.7V367.4H676.1Z"/><rect class="cls-2" x="62.9" y="105.6" width="40.7" height="40.68"/><path class="cls-3" d="M121,146.3h14.4a175.7,175.7,0,0,1,26.3,2.3c25.4,4.2,40.4,20.4,44.2,24.2A90.3,90.3,0,0,1,231,218.9a86,86,0,0,1,1.5,23.1,90.1,90.1,0,0,1-84.7,84.9v40.5A130.7,130.7,0,0,0,273.2,242V231.8c-2.6-68.1-57.3-123.3-125.3-125.9-8.5-.3-26.9-.3-26.9-.3Z"/><path class="cls-1" d="M45.5,241.9V16.3H5V241.9A130.8,130.8,0,0,0,130.4,367.4V326.9A90.2,90.2,0,0,1,45.5,241.9Z"/><path class="cls-1" d="M568.4,105.6H527.7V215.2h0v14.4a163.2,163.2,0,0,1-2.3,26.3c-4.2,25.4-20.4,40.4-24.1,44.2a92.8,92.8,0,0,1-46.2,25.1,91.4,91.4,0,0,1-35.1,0,92.3,92.3,0,0,1-46.2-25.1c-3.7-3.8-20-18.8-24.1-44.2a163.2,163.2,0,0,1-2.3-26.3V215.2h0V105.6H306.7V215.2s-.1,18.3.2,26.9c2.7,68,57.9,122.6,125.9,125.3h9.5c68-2.7,123.2-57.3,125.9-125.3.3-8.6.2-26.9.2-26.9h0Z"/></svg>